<svg width="369" height="307" xmlns="http://www.w3.org/2000/svg" xmlns:xlink="http://www.w3.org/1999/xlink" overflow="hidden"><defs><clipPath id="clip0"><rect x="557" y="186" width="369" height="307"/></clipPath></defs><g clip-path="url(#clip0)" transform="translate(-557 -186)"><path d="M559.5 459.5 651.471 330.5 924.5 330.5 832.53 459.5Z" stroke="#2F528F" stroke-width="1.33333" stroke-miterlimit="8" fill="#00B0F0" fill-rule="evenodd"/><path d="M1.07868-1.04232 159.326 162.725 157.169 164.81-1.07868 1.04232ZM157.225 153.29 160.316 165.908 147.811 162.387C147.014 162.163 146.549 161.334 146.774 160.537 146.998 159.739 147.827 159.275 148.624 159.499L158.654 162.323 156.79 164.124 154.311 154.004C154.114 153.199 154.607 152.387 155.412 152.19 156.216 151.993 157.028 152.485 157.225 153.29Z" fill="#FF0000" transform="matrix(1 0 0 -1 665.5 393.403)"/><path d="M826.5 227.5 826.5 393.403" stroke="#FF0000" stroke-width="3" stroke-miterlimit="8" stroke-dasharray="3 3" fill="none" fill-rule="evenodd"/><path d="M665.5 392 668.5 392 668.5 395 665.5 395ZM671.5 392 674.5 392 674.5 395 671.5 395ZM677.5 392 680.5 392 680.5 395 677.5 395ZM683.5 392 686.5 392 686.5 395 683.5 395ZM689.5 392 692.5 392 692.5 395 689.5 395ZM695.5 392 698.5 392 698.5 395 695.5 395ZM701.5 392 704.5 392 704.5 395 701.5 395ZM707.5 392 710.5 392 710.5 395 707.5 395ZM713.5 392 716.5 392 716.5 395 713.5 395ZM719.5 392 722.5 392 722.5 395 719.5 395ZM725.5 392 728.5 392 728.5 395 725.5 395ZM731.5 392 734.5 392 734.5 395 731.5 395ZM737.5 392 740.5 392 740.5 395 737.5 395ZM743.5 392 746.5 392 746.5 395 743.5 395ZM749.5 392 752.5 392 752.5 395 749.5 395ZM755.5 392 758.5 392 758.5 395 755.5 395ZM761.5 392 764.5 392 764.5 395 761.5 395ZM767.5 392 770.5 392 770.5 395 767.5 395ZM773.5 392 776.5 392 776.5 395 773.5 395ZM779.5 392 782.5 392 782.5 395 779.5 395ZM785.5 392 788.5 392 788.5 395 785.5 395ZM791.5 392 794.5 392 794.5 395 791.5 395ZM797.5 392 800.5 392 800.5 395 797.5 395ZM803.5 392 806.5 392 806.5 395 803.5 395ZM809.5 392 812.5 392 812.5 395 809.5 395ZM815.5 392 818.5 392 818.5 395 815.5 395ZM821.5 392 822.841 392 822.841 395 821.5 395ZM814.597 386.954 825.818 393.5 814.597 400.046C813.881 400.463 812.963 400.222 812.545 399.506 812.128 398.79 812.369 397.872 813.085 397.454L822.085 392.204 822.085 394.796 813.085 389.546C812.369 389.128 812.128 388.21 812.545 387.494 812.963 386.779 813.881 386.537 814.597 386.954Z" fill="#0070C0"/><text font-family="DengXian,DengXian_MSFontService,sans-serif" font-weight="400" font-size="24" transform="translate(818.708 215)">b</text><path d="M666.373 394.28 668.813 396.026 667.067 398.466 664.627 396.72ZM671.252 397.772 673.692 399.517 671.947 401.957 669.507 400.211ZM676.132 401.263 678.572 403.009 676.826 405.448 674.386 403.703ZM681.012 404.754 683.451 406.5 681.706 408.94 679.266 407.194ZM685.891 408.246 688.331 409.992 686.585 412.431 684.145 410.686ZM690.771 411.737 693.21 413.483 691.465 415.923 689.025 414.177ZM695.65 415.229 698.09 416.974 696.344 419.414 693.905 417.668ZM700.53 418.72 702.97 420.466 701.224 422.906 698.784 421.16ZM705.409 422.211 707.849 423.957 706.103 426.397 703.664 424.651ZM710.289 425.703 712.729 427.449 710.983 429.888 708.543 428.143ZM715.168 429.194 717.608 430.94 715.863 433.38 713.423 431.634ZM714.247 422.331 719.564 434.184 706.629 432.978C705.805 432.901 705.198 432.17 705.275 431.345 705.352 430.52 706.083 429.914 706.908 429.99L717.282 430.958 715.774 433.065 711.51 423.559C711.171 422.803 711.509 421.915 712.265 421.576 713.021 421.237 713.908 421.575 714.247 422.331Z" fill="#0070C0"/><path d="M0.78986-1.27519 3.34025 0.304526 1.76053 2.85491-0.78986 1.27519ZM5.89064 1.88425 8.44103 3.46397 6.86131 6.01435 4.31092 4.43463ZM10.9914 5.04369 13.5418 6.62341 11.9621 9.17379 9.4117 7.59407ZM16.0922 8.20313 18.6426 9.78285 17.0629 12.3332 14.5125 10.7535ZM21.193 11.3626 23.7434 12.9423 22.1636 15.4927 19.6132 13.913ZM26.2937 14.522 28.8441 16.1017 27.2644 18.6521 24.714 17.0724ZM31.3945 17.6814 33.9449 19.2612 32.3652 21.8116 29.8148 20.2318ZM36.4953 20.8409 39.0457 22.4206 37.466 24.971 34.9156 23.3913ZM41.5961 24.0003 44.1465 25.58 42.5668 28.1304 40.0164 26.5507ZM46.6969 27.1598 49.2472 28.7395 47.6675 31.2899 45.1171 29.7102ZM51.7976 30.3192 54.348 31.8989 52.7683 34.4493 50.2179 32.8696ZM56.8984 33.4786 59.4488 35.0584 57.8691 37.6088 55.3187 36.029ZM56.3601 27.21 62.4527 38.6834 49.4665 38.3394C48.6384 38.3174 47.9848 37.6283 48.0068 36.8001 48.0287 35.972 48.7179 35.3185 49.546 35.3404L59.9617 35.6164 58.5971 37.8194 53.7105 28.617C53.322 27.8854 53.6001 26.9773 54.3318 26.5887 55.0635 26.2002 55.9716 26.4784 56.3601 27.21Z" fill="#0070C0" transform="matrix(1 0 0 -1 665.5 392.18)"/><text font-family="Cambria Math,Cambria Math_MSFontService,sans-serif" font-weight="400" font-size="24" transform="translate(729.904 355)">𝑎<tspan font-size="18" x="12.78" y="4">1</tspan><tspan font-size="24" x="-4.70697" y="82">𝑎</tspan><tspan font-size="18" x="8.62634" y="87">2</tspan><tspan font-size="24" x="45.5948" y="131">𝐶</tspan><tspan font-size="24" x="60.9815" y="131">(</tspan>𝐴<tspan font-size="24" x="86.3815" y="131">)</tspan><tspan font-size="24" x="106.358" y="-68">𝑒</tspan><tspan font-size="24" x="105.665" y="44">𝑝</tspan></text></g></svg>